<svg width="650" height="50" viewBox="0 0 650 50" fill="none" xmlns="http://www.w3.org/2000/svg">
<mask id="mask0_14_1170" style="mask-type:alpha" maskUnits="userSpaceOnUse" x="0" y="0" width="50" height="50">
<path d="M10 0H20V10H10V0Z" fill="white"/>
<path d="M20 10H30V20H20V10Z" fill="white"/>
<path d="M30 20H40V30H30V20Z" fill="white"/>
<path d="M20 30H30V40H20V30Z" fill="white"/>
<path d="M10 40H20V50H10V40Z" fill="white"/>
</mask>
<g mask="url(#mask0_14_1170)">
<rect width="50" height="50" fill="black"/>
</g>
<path d="M540 0H590V10H550V20H590V50H540V40H580V30H540V0Z" fill="black"/>
<path d="M480 0H530V10H490V20H530V50H480V40H520V30H480V0Z" fill="black"/>
<path d="M420 0H470V10H430V20H470V30H430V40H470V50H420V0Z" fill="black"/>
<path d="M360 50V0H370V40H410V50H360Z" fill="black"/>
<path d="M300 0H350V10H310V20H350V30H310V40H350V50H300V0Z" fill="black"/>
<path d="M240 0H290V10H250V20H290V50H240V40H280V30H240V0Z" fill="black"/>
<path d="M180 50V0H190V40H220V0H230V50H180Z" fill="black"/>
<path fill-rule="evenodd" clip-rule="evenodd" d="M170 0H120V50H170V0ZM130 10H160V40H130V10Z" fill="black"/>
<path d="M60 0V50H70V10H80V50H90V10H100V50H110V0H60Z" fill="black"/>
<rect x="600" y="40" width="50" height="10" fill="black"/>
</svg>
